<?xml version="1.0" standalone="no"?>
<!DOCTYPE svg PUBLIC "-//W3C//DTD SVG 20010904//EN"
 "http://www.w3.org/TR/2001/REC-SVG-20010904/DTD/svg10.dtd">
<svg version="1.0" xmlns="http://www.w3.org/2000/svg"
 width="1247.000000pt" height="1195.000000pt" viewBox="0 0 1247.000000 1195.000000"
 preserveAspectRatio="xMidYMid meet">

<g transform="translate(0.000000,1195.000000) scale(0.100000,-0.100000)"
fill="#000000" stroke="none">
<path d="M6338 11124 c-117 -28 -230 -108 -285 -202 -35 -59 -63 -172 -63
-252 0 -272 187 -452 485 -467 168 -8 283 29 386 125 192 178 185 536 -15 694
-67 53 -113 76 -203 99 -90 22 -220 24 -305 3z m226 -28 c175 -103 270 -426
196 -670 -20 -67 -32 -87 -79 -136 -87 -91 -171 -102 -268 -37 -128 86 -203
264 -203 481 0 159 24 236 98 318 73 81 166 97 256 44z"/>
<path d="M5173 11030 c-82 -15 -206 -64 -269 -108 -81 -54 -140 -121 -177
-200 -26 -56 -32 -82 -35 -158 -7 -147 36 -261 133 -359 62 -62 123 -96 212
-119 149 -39 313 3 407 103 37 39 44 39 48 -1 2 -18 8 -32 13 -32 6 1 73 14
150 30 109 23 133 30 106 34 -21 3 -41 15 -52 30 -22 30 -72 255 -64 288 3 12
20 32 38 43 29 19 29 20 7 16 -259 -55 -469 -101 -466 -104 2 -2 45 2 95 8 81
11 93 11 108 -3 8 -9 26 -65 39 -124 28 -127 26 -133 -57 -179 -72 -40 -169
-42 -243 -5 -164 82 -286 295 -290 505 -1 106 12 152 62 207 54 60 104 82 187
82 58 0 77 -4 110 -26 88 -56 134 -136 135 -227 0 -30 3 -52 6 -48 4 3 35 67
70 143 49 103 62 139 54 149 -35 42 -224 73 -327 55z"/>
<path d="M7406 10906 c-31 -57 -56 -107 -56 -111 0 -4 22 13 48 37 81 72 132
93 226 92 145 0 145 35 -4 -403 -70 -208 -133 -388 -139 -399 -12 -23 -31 -32
-69 -33 -21 0 152 -64 313 -116 14 -4 10 3 -12 21 -21 18 -33 37 -33 53 0 39
250 784 266 790 21 8 113 -48 154 -95 45 -50 57 -100 40 -162 -6 -23 -10 -43
-8 -45 3 -4 137 181 144 199 4 10 -770 276 -803 276 -6 0 -37 -47 -67 -104z"/>
<path d="M8639 10574 c12 -15 21 -33 21 -42 0 -19 -384 -643 -412 -670 -15
-13 -39 -22 -69 -24 l-46 -3 298 -183 c180 -111 301 -191 304 -203 4 -10 9
-19 13 -19 4 0 57 49 117 110 l109 110 -84 -37 c-104 -46 -221 -57 -293 -28
-56 22 -197 105 -197 115 0 8 192 322 212 347 14 18 118 -49 179 -115 49 -54
54 -68 50 -142 -2 -31 6 -21 73 88 42 67 76 125 76 127 0 3 -18 -4 -40 -15
-59 -30 -112 -26 -194 15 -39 19 -83 45 -98 58 l-27 22 111 177 110 178 49
-28 c118 -65 200 -148 218 -220 5 -20 12 -68 16 -107 l7 -69 39 104 c21 58 39
108 39 112 0 7 -583 368 -594 368 -4 0 2 -12 13 -26z"/>
<path d="M3905 10553 c-328 -73 -520 -328 -450 -598 87 -334 400 -463 720
-297 81 42 191 145 224 211 53 103 66 235 35 342 -37 127 -130 249 -225 296
-88 44 -224 64 -304 46z m30 -117 c139 -68 252 -184 324 -329 94 -194 72 -345
-61 -411 -90 -45 -192 -28 -311 52 -170 114 -296 310 -304 477 -5 93 8 135 59
185 45 45 82 59 158 60 55 0 77 -6 135 -34z"/>
<path d="M9611 9949 c17 -24 20 -37 13 -55 -12 -31 -498 -531 -536 -550 -16
-8 -52 -15 -81 -16 l-51 0 59 -56 c179 -167 435 -426 435 -438 0 -8 4 -14 10
-14 5 0 63 33 129 73 l119 73 -142 0 c-137 -1 -144 0 -199 28 -31 15 -85 54
-119 86 l-63 57 294 302 c246 251 299 301 322 301 15 0 31 -4 34 -10 3 -5 11
-10 18 -10 6 0 -47 59 -118 130 -128 128 -168 160 -124 99z"/>
<path d="M2815 9761 c-122 -44 -170 -79 -395 -290 -148 -139 -190 -183 -139
-148 54 38 59 35 330 -256 141 -150 264 -285 274 -300 16 -24 16 -33 6 -68 -7
-23 -11 -43 -9 -45 2 -2 90 81 195 184 204 200 234 240 272 366 49 158 10 312
-113 443 -39 43 -79 73 -124 95 -58 29 -78 33 -157 35 -67 2 -103 -2 -140 -16z
m58 -132 c82 -28 165 -88 264 -193 137 -145 183 -269 134 -364 -25 -49 -106
-124 -167 -155 l-50 -25 -224 240 c-124 132 -251 269 -284 305 l-59 64 39 40
c22 22 70 56 108 75 83 41 145 45 239 13z"/>
<path d="M5424 9272 c-166 -3 -174 -7 -182 -97 -6 -77 11 -113 65 -136 32 -14
48 -28 58 -53 12 -29 15 -252 15 -1503 0 -807 0 -1670 0 -1916 l0 -449 29 -29
29 -29 189 0 c103 0 204 -5 225 -10 44 -13 103 -75 118 -127 8 -26 10 -144 8
-375 l-3 -336 -30 -44 c-39 -55 -84 -78 -155 -78 -126 0 -129 -6 -131 -268 -1
-131 3 -207 10 -221 24 -44 58 -51 248 -51 206 0 239 9 260 70 9 25 12 187 13
585 1 584 -1 563 50 598 22 15 60 17 355 17 368 0 358 2 395 -70 18 -36 19
-62 19 -583 -1 -397 2 -551 11 -567 23 -43 65 -50 282 -50 l203 0 -56 52
c-300 284 -302 733 -3 1006 68 63 200 137 261 147 65 11 93 26 93 49 0 11 1
958 3 2103 l2 2081 23 25 c13 14 36 27 51 30 56 12 81 129 41 195 -11 17 -23
32 -27 32 -93 2 -2370 4 -2469 2z m893 -296 c76 -20 157 -65 219 -119 l54 -49
53 49 c158 144 396 175 589 77 61 -31 170 -132 200 -185 12 -23 35 -42 59 -53
63 -28 67 -44 68 -289 1 -173 -1 -223 -13 -245 -19 -37 -39 -53 -77 -61 -25
-5 -35 -15 -52 -57 -31 -70 -101 -187 -160 -264 -70 -93 -267 -284 -373 -363
l-92 -68 -4 -84 c-7 -138 -38 -163 -203 -164 -113 -1 -138 8 -172 58 -20 30
-23 47 -23 132 l0 97 -37 23 c-69 42 -237 182 -328 273 -110 111 -197 226
-250 330 -34 66 -46 80 -78 93 -76 31 -77 36 -77 299 l0 232 25 30 c14 17 38
33 54 37 18 4 35 18 49 43 52 94 189 196 304 226 68 19 199 20 265 2z m-373
-1270 c64 -27 66 -35 66 -296 0 -229 -1 -236 -23 -261 -30 -37 -65 -45 -187
-44 -113 0 -146 12 -169 63 -15 33 -15 456 1 485 29 55 58 66 181 66 62 1 110
-4 131 -13z m1557 -9 c56 -38 59 -51 59 -287 0 -236 -3 -249 -59 -287 -30 -20
-46 -23 -133 -23 -111 0 -157 14 -184 55 -15 23 -17 56 -18 255 -1 217 0 230
20 257 33 45 60 53 175 53 94 0 110 -3 140 -23z m-1521 -1008 l31 -32 -4 -237
c-3 -156 -9 -245 -17 -259 -19 -37 -69 -51 -178 -51 -87 0 -103 3 -133 23 -52
35 -58 66 -58 306 l-1 213 34 34 34 34 130 0 130 0 32 -31z m770 1 c15 -16 30
-42 33 -58 3 -16 3 -125 1 -243 l-5 -214 -30 -30 c-27 -28 -33 -29 -129 -33
-122 -5 -161 1 -192 33 -24 24 -25 28 -32 255 -9 319 -9 320 197 320 l129 0
28 -30z m758 14 c44 -30 48 -57 50 -287 2 -191 0 -222 -15 -247 -29 -50 -70
-62 -198 -58 -177 5 -188 22 -184 290 3 227 9 265 43 295 25 21 36 23 154 23
99 0 132 -3 150 -16z m-1532 -1008 l34 -34 0 -237 0 -237 -34 -34 -34 -34
-127 0 -127 0 -34 34 -34 34 0 237 0 237 34 34 34 34 127 0 127 0 34 -34z
m772 0 l37 -34 3 -198 c4 -243 1 -271 -40 -312 l-30 -32 -127 0 c-200 0 -201
2 -201 305 0 300 3 304 203 305 l117 0 38 -34z m758 12 c18 -13 38 -33 44 -46
17 -38 11 -450 -7 -485 -22 -43 -67 -57 -187 -57 -114 0 -141 7 -171 48 -19
25 -20 42 -20 261 l1 233 37 34 37 34 117 0 c104 0 120 -2 149 -22z"/>
<path d="M6119 8766 c-99 -38 -178 -111 -222 -203 -42 -92 -50 -231 -18 -346
26 -94 75 -197 138 -286 67 -96 276 -298 378 -365 121 -80 214 -136 224 -136
5 0 45 23 88 52 220 145 423 360 515 543 38 76 76 193 89 276 35 224 -63 399
-260 464 -158 52 -361 -29 -435 -173 -19 -38 -33 -40 -45 -9 -18 47 -102 126
-168 159 -57 28 -78 33 -157 35 -60 2 -103 -2 -127 -11z m396 -339 c56 -56 59
-130 8 -181 -36 -36 -72 -34 -112 8 -71 73 -40 206 47 206 14 0 38 -14 57 -33z
m252 18 c13 -9 27 -34 33 -56 32 -117 -84 -221 -154 -138 -43 50 -34 128 19
182 31 30 69 35 102 12z m-415 -202 c28 -25 41 -79 29 -115 -20 -56 -66 -73
-107 -40 -53 42 -59 109 -14 153 32 32 57 33 92 2z m557 10 c46 -38 43 -124
-5 -162 -58 -46 -109 -12 -109 71 0 43 4 53 33 79 37 34 52 36 81 12z m-247
-90 c76 -81 178 -219 184 -248 8 -44 -25 -108 -65 -125 -31 -12 -59 -11 -167
9 -49 9 -70 8 -110 -4 -27 -8 -60 -15 -74 -15 -38 0 -85 33 -104 74 -25 52 -9
90 75 184 38 42 84 94 103 115 30 33 38 37 83 37 41 0 54 -5 75 -27z"/>
<path d="M762 5403 l3 -48 718 -3 717 -2 0 50 0 50 -721 0 -720 0 3 -47z"/>
<path d="M10260 5400 l0 -50 718 2 717 3 3 48 3 47 -720 0 -721 0 0 -50z"/>
<path d="M3590 4935 c-9 -11 -12 -101 -13 -355 0 -309 1 -342 17 -358 13 -13
41 -18 134 -22 l117 -5 5 -325 c5 -338 8 -357 50 -380 10 -5 51 -10 90 -10 66
0 74 2 101 29 33 33 29 -23 32 471 l2 215 570 0 570 0 5 -325 c3 -179 9 -333
13 -342 17 -33 54 -47 131 -50 70 -3 77 -1 102 24 l27 26 1 334 1 333 142 5
c119 4 145 8 160 23 17 16 18 45 18 353 l0 336 -24 19 c-23 18 -55 19 -1131
19 -968 0 -1109 -2 -1120 -15z m915 -156 c109 -30 168 -184 114 -296 -46 -96
-133 -139 -229 -113 -139 37 -193 229 -98 344 54 66 128 88 213 65z m-563 -76
l3 -78 70 0 70 0 3 78 3 78 47 -3 47 -3 0 -200 0 -200 -45 0 -45 0 -3 83 -3
83 -72 -3 -72 -3 -3 -82 -3 -83 -44 0 -45 0 0 205 0 205 45 0 44 0 3 -77z
m1023 37 l0 -35 -55 -5 -55 -5 -3 -162 -2 -163 -45 0 -45 0 -2 163 -3 162 -51
3 c-51 3 -52 4 -56 38 -2 19 -2 37 1 40 3 2 75 3 160 2 l156 -3 0 -35z m297
18 c9 -53 2 -58 -78 -58 l-74 0 0 -40 0 -39 73 -3 72 -3 0 -35 0 -35 -72 -3
-73 -3 0 -44 0 -45 80 0 80 0 0 -40 0 -40 -130 0 -130 0 0 198 c0 109 3 202 7
205 3 4 59 7 124 7 113 0 117 -1 121 -22z m168 -143 l0 -165 80 0 80 0 0 -40
0 -40 -130 0 -130 0 0 205 0 205 50 0 50 0 0 -165z"/>
<path d="M4379 4679 c-26 -28 -29 -38 -29 -96 0 -37 6 -76 15 -93 45 -88 153
-54 169 52 20 130 -80 218 -155 137z"/>
<path d="M8436 4734 c-157 -129 -281 -282 -357 -440 -27 -57 -54 -106 -58
-109 -8 -4 -78 45 -91 64 -3 4 -29 26 -58 49 -80 63 -121 54 -166 -35 -28 -55
-21 -90 27 -137 57 -58 226 -208 257 -229 50 -34 54 -31 169 126 115 155 197
251 303 352 114 110 196 172 283 216 42 21 65 38 63 47 -2 9 -52 46 -113 84
-144 90 -164 91 -259 12z"/>
<path d="M7779 4639 c-108 -25 -228 -95 -297 -174 -47 -54 -105 -169 -122
-244 -18 -78 -8 -231 20 -306 57 -150 176 -272 317 -325 321 -120 668 71 738
405 16 77 18 116 9 165 l-7 32 -29 -34 c-81 -92 -100 -120 -114 -169 -23 -76
-56 -128 -119 -188 -74 -70 -148 -102 -251 -108 -221 -15 -399 129 -437 353
-21 121 29 260 128 353 104 98 229 134 368 106 44 -9 80 -15 81 -13 1 2 16 22
34 46 19 24 32 49 29 56 -3 7 -38 22 -79 34 -77 23 -198 28 -269 11z"/>
<path d="M2560 3792 c0 -10 -8 -33 -18 -52 -32 -59 -442 -753 -462 -781 l-19
-27 60 -22 61 -22 418 106 c230 58 431 106 447 106 15 0 40 -7 56 -14 15 -8
27 -12 27 -9 0 8 -123 173 -127 170 -1 -2 3 -17 9 -35 15 -38 1 -69 -42 -94
-32 -18 -757 -204 -765 -196 -9 9 385 662 413 685 34 28 52 29 86 2 14 -11 26
-17 26 -13 0 11 -154 213 -162 214 -5 0 -8 -8 -8 -18z"/>
<path d="M9949 3556 c-46 -16 -83 -43 -135 -98 -45 -47 -318 -408 -309 -408 3
0 19 10 35 21 16 12 37 19 47 17 11 -3 162 -112 336 -243 212 -159 319 -245
323 -260 3 -13 0 -33 -6 -45 -7 -14 -8 -21 -2 -19 13 5 175 219 166 219 -3 0
-17 -9 -31 -20 -14 -11 -33 -20 -42 -20 -13 0 -231 156 -264 189 -7 7 9 36 47
86 l57 76 207 -6 c114 -4 217 -8 228 -11 17 -3 33 11 78 71 31 41 56 79 56 85
0 6 -19 0 -42 -12 -40 -21 -58 -23 -247 -26 -112 -2 -207 0 -211 5 -5 4 -2 33
6 63 18 70 18 114 -2 179 -38 130 -172 201 -295 157z m121 -113 c69 -41 137
-110 156 -158 15 -40 15 -48 1 -89 -9 -25 -30 -67 -48 -93 -38 -56 -125 -150
-151 -164 -14 -8 -53 17 -198 126 -99 74 -180 138 -180 142 0 7 96 133 132
174 86 98 189 120 288 62z"/>
<path d="M9099 2712 c-136 -119 -246 -218 -245 -219 1 -2 16 3 33 9 21 8 38 9
51 2 28 -13 532 -590 532 -609 0 -9 -7 -31 -14 -50 -8 -19 -11 -35 -7 -35 5 0
119 97 254 215 151 132 253 215 266 215 12 0 21 2 21 4 0 2 -27 57 -59 122
l-59 119 1 -115 c3 -156 -8 -177 -159 -309 -63 -56 -118 -101 -122 -101 -7 0
-214 233 -264 295 -17 22 -15 23 70 97 127 110 160 130 202 125 19 -2 43 -7
53 -11 31 -14 17 8 -53 84 l-70 75 6 -43 c6 -35 2 -49 -19 -81 -33 -49 -217
-215 -227 -204 -64 69 -270 309 -270 313 0 10 182 165 227 193 55 35 106 42
188 28 37 -7 69 -10 71 -8 6 5 -135 107 -148 106 -7 0 -124 -98 -259 -217z"/>
<path d="M3470 2673 c-14 -10 -104 -60 -200 -111 -526 -281 -535 -286 -590
-286 l-47 0 76 -62 c42 -34 77 -60 79 -59 2 2 -1 12 -7 23 -28 52 0 97 89 142
l38 20 201 -160 c111 -88 201 -164 201 -170 0 -20 -40 -113 -56 -131 -20 -22
-83 -26 -102 -7 -7 7 -12 9 -12 6 0 -6 236 -198 244 -198 2 0 -2 14 -11 31
-18 36 -15 55 36 226 104 343 175 576 201 656 l28 87 -37 0 c-20 0 -52 3 -71
6 -25 4 -42 0 -60 -13z m28 -41 c-34 -129 -175 -582 -182 -582 -15 0 -376 294
-373 304 2 5 30 23 63 41 163 86 318 168 394 209 95 51 104 54 98 28z"/>
<path d="M8660 2379 c-83 -47 -84 -49 -48 -49 28 0 42 -7 62 -31 14 -17 26
-36 26 -42 0 -7 16 -176 35 -377 41 -425 39 -394 21 -387 -23 9 -584 475 -601
500 -21 30 -19 59 6 91 11 14 18 26 16 26 -5 0 -135 -69 -200 -105 l-40 -23
39 -20 c22 -11 201 -153 399 -316 l360 -295 23 37 c12 20 25 48 29 62 3 14
-10 203 -31 420 -43 461 -43 481 -15 526 11 19 17 34 12 33 -4 0 -46 -23 -93
-50z"/>
<path d="M4048 2283 c35 -69 34 -85 -2 -164 -243 -530 -278 -595 -335 -620
l-30 -13 52 -27 c29 -14 63 -29 75 -34 21 -6 23 -5 13 13 -27 51 -8 133 65
284 24 49 44 90 44 93 0 3 65 142 132 283 11 23 23 42 27 42 4 0 68 -225 141
-500 74 -275 137 -500 141 -500 3 0 16 26 29 58 22 54 45 105 120 267 18 39
50 108 72 155 118 255 168 330 219 330 16 0 -5 14 -60 40 -46 22 -85 40 -88
40 -2 0 4 -11 13 -25 31 -48 15 -113 -75 -310 -160 -347 -163 -352 -172 -330
-14 33 -229 843 -229 863 0 13 -22 29 -79 55 -43 20 -81 37 -85 37 -3 0 2 -17
12 -37z"/>
<path d="M7742 1933 c-90 -25 -92 -27 -65 -38 65 -28 92 -85 162 -338 33 -117
62 -231 66 -254 16 -100 -43 -218 -139 -277 -66 -41 -151 -47 -224 -16 -57 25
-133 99 -155 153 -20 46 -148 511 -154 557 -4 31 -1 40 22 58 15 12 24 22 19
22 -22 0 -247 -68 -228 -69 48 -2 70 -35 104 -158 121 -441 142 -497 217 -563
160 -141 480 -54 538 145 29 99 22 164 -46 408 -34 122 -64 248 -67 280 -4 53
-3 60 23 87 16 17 27 30 24 29 -2 0 -46 -12 -97 -26z"/>
<path d="M5216 1804 c-223 -54 -356 -221 -356 -447 0 -45 5 -100 11 -122 57
-210 254 -355 480 -355 76 0 183 29 223 61 32 25 27 38 -6 17 -40 -26 -126
-41 -199 -35 -339 29 -500 506 -261 777 89 101 235 132 357 76 71 -32 89 -48
122 -104 31 -53 33 -136 5 -193 -11 -22 -17 -39 -13 -39 13 0 181 162 181 175
0 7 -20 35 -45 63 -103 114 -321 169 -499 126z"/>
<path d="M6280 1701 c-174 -47 -287 -158 -330 -321 -17 -65 -15 -195 5 -270
55 -214 248 -341 495 -327 178 10 316 88 394 221 78 133 74 375 -9 506 -107
169 -340 250 -555 191z m222 -30 c233 -118 355 -473 240 -700 -31 -63 -111
-137 -167 -157 -190 -66 -405 79 -490 331 -43 128 -38 284 12 384 31 60 111
137 164 157 56 21 186 13 241 -15z"/>
</g>
</svg>
